Coordinates
version=1
nRows=26
nColumns=22
inDegrees=yes

Units are S.I. units (second, meters, Newtons, ...)
If the header above contains a line with 'inDegrees', this indicates whether rotational values are in degrees (yes) or radians (no).

endheader
time	pelvis_tilt	pelvis_list	pelvis_rotation	pelvis_tx	pelvis_ty	pelvis_tz	hip_flexion_r	hip_adduction_r	hip_rotation_r	knee_angle_r	ankle_angle_r	subtalar_angle_r	hip_flexion_l	hip_adduction_l	hip_rotation_l	knee_angle_l	ankle_angle_l	subtalar_angle_l	lumbar_extension	lumbar_bending	lumbar_rotation
      1.18000000	     -9.69812153	      1.66119164	    -33.77675293	     -0.92561542	      0.87761145	     -0.36516421	     17.74682105	      0.87974339	     -1.49615812	    -29.97929767	     15.31891452	      1.92258142	      3.94217919	     -1.74082656	     -1.53015220	     -8.61899166	     19.17442130	     -3.68411774	      2.05199976	      1.72660847	     12.38713056
      1.19000000	     -9.55723548	      1.44306056	    -33.70695553	     -0.92415103	      0.87779402	     -0.36515369	     19.02996053	      0.90266721	     -1.52553917	    -32.86540249	     14.45645731	      2.31146299	      3.59908279	     -1.79509044	     -1.45632032	     -8.60605270	     19.31322610	     -3.79073829	      1.65075959	      1.86026974	     12.09895642
      1.20000000	     -9.32455300	      1.21675526	    -33.62841002	     -0.92259702	      0.87805409	     -0.36508713	     20.28794966	      0.86745522	     -1.58293134	    -35.82074212	     13.47233337	      2.50636305	      3.12319487	     -1.80350213	     -1.39178029	     -8.51730043	     19.36693286	     -3.81347081	      1.15390114	      1.94186447	     11.79858758
      1.21000000	     -9.10602353	      1.00346256	    -33.54115625	     -0.92100207	      0.87822305	     -0.36495564	     21.60923554	      0.82415196	     -1.63943091	    -38.79008564	     12.34807346	      2.72985908	      2.64460207	     -1.81433445	     -1.34041647	     -8.39346905	     19.45005570	     -3.85529780	      0.68054098	      2.02119031	     11.46926849
      1.22000000	     -8.85909246	      0.78809403	    -33.43712566	     -0.91930248	      0.87837142	     -0.36475040	     22.91383583	      0.75132558	     -1.72281059	    -41.70899374	     11.15808842	      2.88786158	      2.10533775	     -1.81359184	     -1.28692216	     -8.22114153	     19.52226563	     -3.88966830	      0.18325165	      2.08685717	     11.11406881
      1.23000000	     -8.59600906	      0.58333254	    -33.31389649	     -0.91747427	      0.87847077	     -0.36446230	     24.19739193	      0.64071880	     -1.83671901	    -44.52582762	      9.98042709	      2.95636158	      1.52388145	     -1.79743485	     -1.23033245	     -8.00272677	     19.59180851	     -3.91532547	     -0.31350516	      2.13664334	     10.73211894
      1.24000000	     -8.33032093	      0.39723931	    -33.17119345	     -0.91548668	      0.87850315	     -0.36407266	     25.45211311	      0.48847233	     -1.98765170	    -47.18845081	      8.91057670	      2.92451452	      0.91666502	     -1.76675641	     -1.16365345	     -7.74252864	     19.66464486	     -3.93826767	     -0.78667032	      2.17227676	     10.32879762
      1.25000000	     -8.06721729	      0.22327194	    -33.00502503	     -0.91330363	      0.87848678	     -0.36355650	     26.65016177	      0.29963325	     -2.18502028	    -49.63611355	      8.01318304	      2.78552915	      0.28272302	     -1.73264401	     -1.09011288	     -7.44157920	     19.72785011	     -3.95375865	     -1.22861365	      2.20241620	      9.89650038
      1.26000000	     -7.83356426	      0.07410866	    -32.82529204	     -0.91093447	      0.87837361	     -0.36292466	     27.81368094	      0.08217663	     -2.41990672	    -51.83644225	      7.37916101	      2.46086000	     -0.34000166	     -1.69662554	     -0.99335842	     -7.11398189	     19.82673175	     -4.00317624	     -1.60816708	      2.23492925	      9.46522867
      1.27000000	     -7.61767051	     -0.07996856	    -32.62613739	     -0.90834581	      0.87824360	     -0.36219152	     28.88627357	     -0.15277528	     -2.71053397	    -53.72413035	      6.99730025	      2.09161770	     -0.98031767	     -1.67814046	     -0.88830373	     -6.75482136	     19.89337978	     -4.02386551	     -1.95560643	      2.29701099	      9.01257665
      1.28000000	     -7.42981195	     -0.22255924	    -32.40517040	     -0.90557800	      0.87807553	     -0.36138325	     29.88545573	     -0.40842355	     -3.03745144	    -55.27710114	      6.83185166	      1.75578419	     -1.59935553	     -1.66907861	     -0.77444244	     -6.39368055	     19.93210905	     -4.01977595	     -2.25546794	      2.37743446	      8.52002491
      1.29000000	     -7.30789117	     -0.35349723	    -32.20178056	     -0.90270166	      0.87780929	     -0.36041713	     30.84950167	     -0.63512356	     -3.39001961	    -56.48701484	      6.89335870	      1.06493218	     -2.15794846	     -1.69327530	     -0.64570994	     -6.05306378	     20.02520374	     -4.08215114	     -2.47117462	      2.48760353	      8.09714142
      1.30000000	     -7.20492986	     -0.48566409	    -31.97084229	     -0.89967510	      0.87754473	     -0.35941974	     31.71612973	     -0.87712099	     -3.77620547	    -57.32634857	      7.06585042	      0.73772432	     -2.69259239	     -1.73136557	     -0.48561308	     -5.73512929	     20.07767232	     -4.06502483	     -2.66436037	      2.62257328	      7.63901006
      1.31000000	     -7.15686323	     -0.62273032	    -31.77040538	     -0.89660204	      0.87722776	     -0.35827184	     32.52674166	     -1.05760905	     -4.15811370	    -57.79815411	      7.30216232	      0.04717694	     -3.16574910	     -1.80980108	     -0.33640629	     -5.46769179	     20.18378095	     -4.10174651	     -2.80629951	      2.79390074	      7.25533434
      1.32000000	     -7.13109972	     -0.76182811	    -31.54903556	     -0.89341721	      0.87690707	     -0.35707759	     33.24391844	     -1.23446629	     -4.55909674	    -57.90482569	      7.57393234	     -0.23700201	     -3.58814829	     -1.90534989	     -0.16173788	     -5.26680143	     20.25187844	     -4.08107738	     -2.92559613	      2.98625707	      6.85831801
      1.33000000	     -7.13260572	     -0.92692389	    -31.36720112	     -0.89019249	      0.87658267	     -0.35570913	     33.86602918	     -1.32103518	     -4.91838445	    -57.65161039	      7.83908213	     -0.76583633	     -3.98305380	     -2.04506826	     -0.01731417	     -5.12401387	     20.38024914	     -4.07310676	     -3.03507390	      3.21562090	      6.54881677
      1.34000000	     -7.15341407	     -1.08600033	    -31.17608915	     -0.88690128	      0.87623773	     -0.35427590	     34.40929510	     -1.38141567	     -5.24669071	    -57.06605663	      8.07097375	     -0.93603391	     -4.30994835	     -2.19347689	      0.13523835	     -5.07637431	     20.50053283	     -4.04418914	     -3.12469739	      3.45275814	      6.22759372
      1.35000000	     -7.17972612	     -1.26529322	    -31.01886989	     -0.88356958	      0.87589578	     -0.35266851	     34.84869072	     -1.36293748	     -5.51620772	    -56.15888842	      8.25435751	     -1.10860017	     -4.61962892	     -2.36844521	      0.24914508	     -5.09697893	     20.66567956	     -4.00485375	     -3.22366810	      3.70509347	      5.97135514
      1.36000000	     -7.20692964	     -1.44000469	    -30.89309914	     -0.88020696	      0.87552237	     -0.35089754	     35.20554157	     -1.28563083	     -5.70328125	    -54.96393234	      8.38564475	     -1.19178801	     -4.90336883	     -2.54424939	      0.32536486	     -5.18071875	     20.86461995	     -3.95564673	     -3.32376525	      3.94680835	      5.75779764
      1.37000000	     -7.22981832	     -1.61277955	    -30.79654052	     -0.87680740	      0.87511184	     -0.34895762	     35.47533314	     -1.15028999	     -5.80390801	    -53.50039008	      8.45321285	     -1.16874598	     -5.17110820	     -2.72009027	      0.37169017	     -5.32450112	     21.09659663	     -3.89765005	     -3.43142553	      4.17705607	      5.58483707
      1.38000000	     -7.26472431	     -1.76613316	    -30.73087065	     -0.87335885	      0.87460480	     -0.34684237	     35.68848739	     -0.96889984	     -5.82128966	    -51.79802562	      8.48684301	     -1.04271899	     -5.40644419	     -2.88872926	      0.38682155	     -5.51444085	     21.35790633	     -3.86244911	     -3.51775761	      4.38908236	      5.46222256
      1.39000000	     -7.28268260	     -1.91993481	    -30.68540572	     -0.86984520	      0.87405358	     -0.34454984	     35.80501639	     -0.74598612	     -5.76575883	    -49.86910785	      8.41729897	     -0.80347581	     -5.65629115	     -3.05273256	      0.38253509	     -5.73429330	     21.65381008	     -3.82855427	     -3.62395775	      4.58288379	      5.35252260
      1.40000000	     -7.24595512	     -2.07412779	    -30.64912764	     -0.86617945	      0.87348045	     -0.34211897	     35.79078516	     -0.52550086	     -5.64945926	    -47.74791777	      8.30215277	     -0.29391726	     -5.98107494	     -3.18808343	      0.38555811	     -5.94096763	     21.94858635	     -3.74896640	     -3.78222598	      4.74776906	      5.24711156
      1.41000000	     -7.25117676	     -2.18379604	    -30.62852428	     -0.86244085	      0.87271058	     -0.33951513	     35.77245749	     -0.28591356	     -5.46629617	    -45.46080224	      8.14702610	      0.20942936	     -6.24344538	     -3.30906701	      0.36887472	     -6.17367684	     22.27899851	     -3.74364186	     -3.86981671	      4.88687772	      5.16008812
      1.42000000	     -7.25384470	     -2.27531369	    -30.61027108	     -0.85857378	      0.87181686	     -0.33677564	     35.69141520	     -0.04822712	     -5.23823909	    -43.02660426	      7.94478253	      0.76144749	     -6.51415100	     -3.41426014	      0.35398981	     -6.40517720	     22.62662216	     -3.76217683	     -3.94536033	      5.00970358	      5.07476858
      1.43000000	     -7.25438168	     -2.33398255	    -30.59229521	     -0.85458265	      0.87078233	     -0.33390297	     35.56717371	      0.16970810	     -4.95854252	    -40.47924044	      7.68280734	      1.42387635	     -6.79411078	     -3.49092820	      0.35460770	     -6.61341407	     22.97782781	     -3.78315304	     -3.99944940	      5.09959539	      4.97803949
